<svg xmlns="http://www.w3.org/2000/svg" viewBox="0 0 48 48">
  <defs>
    <linearGradient id="feat-grad" x1="0%" y1="0%" x2="100%" y2="100%">
      <stop offset="0%" stop-color="#fb923c"/>
      <stop offset="100%" stop-color="#c2410c"/>
    </linearGradient>
  </defs>
  <!-- back page shadow -->
  <rect x="16" y="9.5" width="24" height="28" rx="3" fill="rgba(0,0,0,0.3)"/>
  <!-- back page -->
  <rect x="14" y="8" width="24" height="28" rx="3" fill="#334155"/>
  <rect x="18" y="14" width="16" height="2" rx="1" fill="rgba(255,255,255,0.15)"/>
  <rect x="18" y="19" width="12" height="2" rx="1" fill="rgba(255,255,255,0.1)"/>
  <!-- front page shadow -->
  <rect x="10" y="13.5" width="24" height="28" rx="3" fill="rgba(0,0,0,0.3)"/>
  <!-- front page -->
  <rect x="8" y="12" width="24" height="28" rx="3" fill="url(#feat-grad)"/>
  <rect x="13" y="18" width="14" height="2" rx="1" fill="rgba(255,255,255,0.25)"/>
  <rect x="13" y="23" width="10" height="2" rx="1" fill="rgba(255,255,255,0.2)"/>
  <rect x="13" y="28" width="12" height="2" rx="1" fill="rgba(255,255,255,0.15)"/>
  <!-- highlight corner -->
  <path d="M8 15a3 3 0 0 1 3-3h3v6H8z" fill="rgba(255,255,255,0.2)"/>
</svg>
