<svg xmlns="http://www.w3.org/2000/svg" viewBox="0 0 48 48">
  <defs>
    <linearGradient id="eyeGrad" x1="0%" y1="0%" x2="100%" y2="100%">
      <stop offset="0%" stop-color="#fb923c"/>
      <stop offset="100%" stop-color="#c2410c"/>
    </linearGradient>
  </defs>
  <!-- Shadow eye outline -->
  <path d="M4 24s8-14 20-14 20 14 20 14-8 14-20 14S4 24 4 24z" fill="rgba(0,0,0,0.35)" transform="translate(1.5,1.5)"/>
  <!-- Main eye outline -->
  <path d="M4 24s8-14 20-14 20 14 20 14-8 14-20 14S4 24 4 24z" fill="url(#eyeGrad)"/>
  <!-- Iris -->
  <circle cx="24" cy="24" r="7" fill="rgba(0,0,0,0.25)"/>
  <!-- Pupil -->
  <circle cx="24" cy="24" r="4" fill="rgba(0,0,0,0.35)"/>
  <!-- Catch light -->
  <circle cx="26" cy="21" r="2" fill="rgba(255,255,255,0.45)"/>
  <!-- Highlight on eyelid -->
  <path d="M4 24s8-14 20-14c6 0 11 3 15 7-4-3-9-5-15-5C14 12 8 18 4 24z" fill="rgba(255,255,255,0.18)"/>
</svg>
