<svg xmlns="http://www.w3.org/2000/svg" viewBox="0 0 48 48">
  <defs>
    <linearGradient id="contentGrad" x1="0%" y1="0%" x2="100%" y2="100%">
      <stop offset="0%" stop-color="#475569"/>
      <stop offset="100%" stop-color="#1e293b"/>
    </linearGradient>
  </defs>
  <!-- Shadow -->
  <rect x="7" y="6" width="28" height="36" rx="3" fill="rgba(0,0,0,0.35)" transform="translate(1.5,1.5)"/>
  <!-- Pencil shadow -->
  <path d="M33 30l5-5 4 4-5 5z" fill="rgba(0,0,0,0.35)" transform="translate(1.5,1.5)"/>
  <!-- Document body -->
  <rect x="7" y="6" width="28" height="36" rx="3" fill="url(#contentGrad)"/>
  <!-- Text lines -->
  <rect x="13" y="14" width="16" height="3" rx="1.5" fill="rgba(255,255,255,0.35)"/>
  <rect x="13" y="20" width="20" height="3" rx="1.5" fill="rgba(255,255,255,0.25)"/>
  <rect x="13" y="26" width="14" height="3" rx="1.5" fill="rgba(255,255,255,0.25)"/>
  <!-- Pencil body -->
  <path d="M33 30l5-5 4 4-5 5z" fill="url(#contentGrad)"/>
  <!-- Pencil tip -->
  <path d="M38 35l-5 5 1-5z" fill="rgba(255,255,255,0.35)"/>
  <!-- Highlight -->
  <rect x="7" y="6" width="16" height="8" rx="3" fill="rgba(255,255,255,0.18)"/>
</svg>
