<svg xmlns="http://www.w3.org/2000/svg" viewBox="0 0 48 48">
  <defs>
    <linearGradient id="pinterestGrad" x1="0%" y1="0%" x2="100%" y2="100%">
      <stop offset="0%" stop-color="#E60023"/>
      <stop offset="100%" stop-color="#b0001a"/>
    </linearGradient>
  </defs>
  <!-- Shadow circle bg -->
  <circle cx="25.5" cy="25.5" r="20" fill="rgba(0,0,0,0.3)"/>
  <!-- Main circle bg -->
  <circle cx="24" cy="24" r="20" fill="url(#pinterestGrad)"/>
  <!-- Pinterest P letter path -->
  <path d="M19 8c-6 1-10 6-10 12 0 4 2 7 5 9 0-2 1-4 1.5-6 0.8 1.5 3 2.5 5 2.5 6 0 10-5 10-11 0-5-4-9-10-9-1 0-1 0-1.5 2.5z" fill="white" opacity="0.95"/>
  <path d="M24 10c4 0 7 3 7 7 0 5-3 9-8 9-1.5 0-3-1-3.5-2L18 36c-0.5 1.5-1.5 3-2 4h-1c0-1 0-3 0.5-5l3-12c-0.5-1-1-2.5-1-4 0-3.5 2-6 4.5-6" fill="none" stroke="rgba(255,255,255,0)" stroke-width="0"/>
  <!-- Simplified P shape -->
  <path d="M21 9h4c3.5 0 6 2.5 6 6s-2.5 6-6 6h-2l-2 8-1 5h-2l3-14c-1-1.5-1.5-3-1.5-5 0-3 1.5-5 3.5-6z" fill="white" opacity="0.9"/>
  <!-- Shine arc -->
  <path d="M6 14A20 20 0 0 1 22 5" fill="none" stroke="rgba(255,255,255,0.25)" stroke-width="2.5" stroke-linecap="round"/>
</svg>
