<svg xmlns="http://www.w3.org/2000/svg" viewBox="0 0 48 48">
  <defs>
    <linearGradient id="beakerGrad" x1="0%" y1="0%" x2="100%" y2="100%">
      <stop offset="0%" stop-color="#fb923c"/>
      <stop offset="100%" stop-color="#c2410c"/>
    </linearGradient>
  </defs>
  <!-- Shadow -->
  <path d="M18 6h12v14l8 16c1 3-1 6-4 6H14c-3 0-5-3-4-6l8-16V6z" fill="rgba(0,0,0,0.35)" transform="translate(1.5,1.5)"/>
  <!-- Main flask -->
  <path d="M18 6h12v14l8 16c1 3-1 6-4 6H14c-3 0-5-3-4-6l8-16V6z" fill="url(#beakerGrad)"/>
  <!-- Liquid fill at bottom -->
  <path d="M15 38l5-10h8l5 10c0.5 1.5-0.5 3-2 3H17c-1.5 0-2.5-1.5-2-3z" fill="rgba(255,255,255,0.2)"/>
  <!-- Neck rim -->
  <rect x="16" y="5" width="16" height="3" rx="1" fill="rgba(0,0,0,0.15)"/>
  <!-- Highlight -->
  <ellipse cx="20" cy="14" rx="4" ry="6" fill="rgba(255,255,255,0.18)"/>
</svg>
