<svg xmlns="http://www.w3.org/2000/svg" viewBox="0 0 48 48">
  <defs>
    <linearGradient id="bookOpenGrad" x1="0%" y1="0%" x2="100%" y2="100%">
      <stop offset="0%" stop-color="#fb923c"/>
      <stop offset="100%" stop-color="#c2410c"/>
    </linearGradient>
  </defs>
  <!-- Shadow -->
  <path d="M24 38V12c0 0-4-4-14-4H4v26h6c8 0 14 4 14 4z" fill="rgba(0,0,0,0.35)" transform="translate(1.5,1.5)"/>
  <path d="M24 38V12c0 0 4-4 14-4h6v26h-6c-8 0-14 4-14 4z" fill="rgba(0,0,0,0.35)" transform="translate(1.5,1.5)"/>
  <!-- Left page -->
  <path d="M24 38V12c0 0-4-4-14-4H4v26h6c8 0 14 4 14 4z" fill="url(#bookOpenGrad)"/>
  <!-- Right page -->
  <path d="M24 38V12c0 0 4-4 14-4h6v26h-6c-8 0-14 4-14 4z" fill="url(#bookOpenGrad)"/>
  <!-- Spine line -->
  <line x1="24" y1="12" x2="24" y2="38" stroke="rgba(0,0,0,0.2)" stroke-width="1.5"/>
  <!-- Lines on left page -->
  <line x1="10" y1="20" x2="21" y2="20" stroke="rgba(255,255,255,0.3)" stroke-width="1.5" stroke-linecap="round"/>
  <line x1="10" y1="25" x2="21" y2="25" stroke="rgba(255,255,255,0.3)" stroke-width="1.5" stroke-linecap="round"/>
  <line x1="10" y1="30" x2="18" y2="30" stroke="rgba(255,255,255,0.3)" stroke-width="1.5" stroke-linecap="round"/>
  <!-- Lines on right page -->
  <line x1="27" y1="20" x2="38" y2="20" stroke="rgba(255,255,255,0.3)" stroke-width="1.5" stroke-linecap="round"/>
  <line x1="27" y1="25" x2="38" y2="25" stroke="rgba(255,255,255,0.3)" stroke-width="1.5" stroke-linecap="round"/>
  <line x1="27" y1="30" x2="35" y2="30" stroke="rgba(255,255,255,0.3)" stroke-width="1.5" stroke-linecap="round"/>
  <!-- Highlight left page top -->
  <path d="M24 12c0 0-4-4-14-4H4v10h6c7 0 12 2 14 3V12z" fill="rgba(255,255,255,0.18)"/>
</svg>
