<svg xmlns="http://www.w3.org/2000/svg" viewBox="0 0 48 48">
  <defs>
    <linearGradient id="feat-grad" x1="0%" y1="0%" x2="100%" y2="100%">
      <stop offset="0%" stop-color="#fb923c"/>
      <stop offset="100%" stop-color="#c2410c"/>
    </linearGradient>
    <linearGradient id="feat-hl" x1="0%" y1="0%" x2="50%" y2="50%">
      <stop offset="0%" stop-color="rgba(255,255,255,0.22)"/>
      <stop offset="100%" stop-color="rgba(255,255,255,0)"/>
    </linearGradient>
  </defs>
  <!-- shadow brain -->
  <path d="M24 10c-3 0-5.5 1.5-7 4-2 0-4 1.5-4 4s1 3 2.5 3.5c-.5 1-1.5 2-1.5 4s1.5 4 4 4.5v3h12v-3c2.5-.5 4-2.5 4-4.5s-1-3-1.5-4c1.5-.5 2.5-1.5 2.5-3.5s-2-4-4-4c-1.5-2.5-4-4-7-4z" fill="rgba(0,0,0,0.3)" transform="translate(1.5,1.5)"/>
  <!-- brain body -->
  <path d="M24 10c-3 0-5.5 1.5-7 4-2 0-4 1.5-4 4s1 3 2.5 3.5c-.5 1-1.5 2-1.5 4s1.5 4 4 4.5v3h12v-3c2.5-.5 4-2.5 4-4.5s-1-3-1.5-4c1.5-.5 2.5-1.5 2.5-3.5s-2-4-4-4c-1.5-2.5-4-4-7-4z" fill="url(#feat-grad)"/>
  <!-- center line -->
  <line x1="24" y1="10" x2="24" y2="29" stroke="rgba(0,0,0,0.15)" stroke-width="1.5"/>
  <!-- fold lines -->
  <path d="M17 18c1 1 2 3 3 4" fill="none" stroke="rgba(0,0,0,0.15)" stroke-width="1.2" stroke-linecap="round"/>
  <path d="M31 18c-1 1-2 3-3 4" fill="none" stroke="rgba(0,0,0,0.15)" stroke-width="1.2" stroke-linecap="round"/>
  <!-- highlight top -->
  <path d="M24 10c-3 0-5.5 1.5-7 4-1 0-2 .5-2.8 1.5C15.5 13 18.5 11 22 10.5z" fill="url(#feat-hl)"/>
</svg>
