<svg xmlns="http://www.w3.org/2000/svg" viewBox="0 0 48 48">
  <defs>
    <linearGradient id="briefcaseGrad" x1="0%" y1="0%" x2="100%" y2="100%">
      <stop offset="0%" stop-color="#fb923c"/>
      <stop offset="100%" stop-color="#c2410c"/>
    </linearGradient>
  </defs>
  <!-- Shadow handle -->
  <path d="M18 14v-4a2 2 0 0 1 2-2h8a2 2 0 0 1 2 2v4" fill="none" stroke="rgba(0,0,0,0.35)" stroke-width="3" stroke-linecap="round" transform="translate(1.5,1.5)"/>
  <!-- Shadow body -->
  <rect x="5" y="14" width="38" height="26" rx="3" fill="rgba(0,0,0,0.35)" transform="translate(1.5,1.5)"/>
  <!-- Handle -->
  <path d="M18 14v-4a2 2 0 0 1 2-2h8a2 2 0 0 1 2 2v4" fill="none" stroke="url(#briefcaseGrad)" stroke-width="3" stroke-linecap="round"/>
  <!-- Main body -->
  <rect x="5" y="14" width="38" height="26" rx="3" fill="url(#briefcaseGrad)"/>
  <!-- Center divider line -->
  <line x1="5" y1="27" x2="43" y2="27" stroke="rgba(0,0,0,0.15)" stroke-width="1.5"/>
  <!-- Clasp -->
  <rect x="20" y="24" width="8" height="6" rx="1.5" fill="rgba(0,0,0,0.2)"/>
  <rect x="22" y="25.5" width="4" height="3" rx="1" fill="rgba(255,255,255,0.2)"/>
  <!-- Highlight -->
  <rect x="5" y="14" width="22" height="10" rx="3" fill="rgba(255,255,255,0.18)"/>
</svg>
