<svg xmlns="http://www.w3.org/2000/svg" viewBox="0 0 48 48">
  <defs>
    <linearGradient id="mapGrad" x1="0%" y1="0%" x2="100%" y2="100%">
      <stop offset="0%" stop-color="#fb923c"/>
      <stop offset="100%" stop-color="#c2410c"/>
    </linearGradient>
  </defs>
  <!-- Shadow map paper -->
  <path d="M6 10l12 4v26l-12-4V10zm12 4l12-4v26l-12 4V14zm12-4l12 4v26l-12-4V10z" fill="rgba(0,0,0,0.35)" transform="translate(1.5,1.5)"/>
  <!-- Map paper -->
  <path d="M6 10l12 4v26l-12-4V10zm12 4l12-4v26l-12 4V14zm12-4l12 4v26l-12-4V10z" fill="url(#mapGrad)"/>
  <!-- Fold lines / seams -->
  <line x1="18" y1="14" x2="18" y2="40" stroke="rgba(0,0,0,0.15)" stroke-width="1"/>
  <line x1="30" y1="10" x2="30" y2="36" stroke="rgba(0,0,0,0.15)" stroke-width="1"/>
  <!-- Pin on map -->
  <circle cx="24" cy="22" r="4" fill="rgba(255,255,255,0.4)"/>
  <line x1="24" y1="26" x2="24" y2="32" stroke="rgba(255,255,255,0.4)" stroke-width="1.5" stroke-linecap="round"/>
  <!-- Highlight left panel top -->
  <path d="M6 10l12 4v10l-12-4z" fill="rgba(255,255,255,0.18)"/>
</svg>
