<svg xmlns="http://www.w3.org/2000/svg" viewBox="0 0 48 48">
  <defs>
    <linearGradient id="messageSquareGrad" x1="0%" y1="0%" x2="100%" y2="100%">
      <stop offset="0%" stop-color="#fb923c"/>
      <stop offset="100%" stop-color="#c2410c"/>
    </linearGradient>
  </defs>
  <!-- Shadow -->
  <path d="M6 8h36a2 2 0 0 1 2 2v22a2 2 0 0 1-2 2H16l-8 7v-7H6a2 2 0 0 1-2-2V10a2 2 0 0 1 2-2z" fill="rgba(0,0,0,0.35)" transform="translate(1.5,1.5)"/>
  <!-- Main bubble -->
  <path d="M6 8h36a2 2 0 0 1 2 2v22a2 2 0 0 1-2 2H16l-8 7v-7H6a2 2 0 0 1-2-2V10a2 2 0 0 1 2-2z" fill="url(#messageSquareGrad)"/>
  <!-- Lines inside -->
  <rect x="11" y="17" width="20" height="2.5" rx="1.2" fill="rgba(255,255,255,0.3)"/>
  <rect x="11" y="23" width="16" height="2.5" rx="1.2" fill="rgba(255,255,255,0.3)"/>
  <!-- Highlight -->
  <rect x="6" y="8" width="22" height="10" rx="2" fill="rgba(255,255,255,0.18)"/>
</svg>
