<svg xmlns="http://www.w3.org/2000/svg" viewBox="0 0 48 48">
  <defs>
    <linearGradient id="newspaperGrad" x1="0%" y1="0%" x2="100%" y2="100%">
      <stop offset="0%" stop-color="#fb923c"/>
      <stop offset="100%" stop-color="#c2410c"/>
    </linearGradient>
  </defs>
  <!-- Shadow -->
  <rect x="5" y="6" width="38" height="36" rx="2.5" fill="rgba(0,0,0,0.35)" transform="translate(1.5,1.5)"/>
  <!-- Main page -->
  <rect x="5" y="6" width="38" height="36" rx="2.5" fill="url(#newspaperGrad)"/>
  <!-- Header block -->
  <rect x="9" y="10" width="30" height="7" rx="1" fill="rgba(255,255,255,0.25)"/>
  <!-- Left column lines -->
  <rect x="9" y="21" width="13" height="2" rx="1" fill="rgba(255,255,255,0.3)"/>
  <rect x="9" y="25" width="13" height="2" rx="1" fill="rgba(255,255,255,0.3)"/>
  <rect x="9" y="29" width="10" height="2" rx="1" fill="rgba(255,255,255,0.3)"/>
  <rect x="9" y="33" width="13" height="2" rx="1" fill="rgba(255,255,255,0.3)"/>
  <rect x="9" y="37" width="11" height="2" rx="1" fill="rgba(255,255,255,0.3)"/>
  <!-- Right column lines -->
  <rect x="26" y="21" width="13" height="2" rx="1" fill="rgba(255,255,255,0.3)"/>
  <rect x="26" y="25" width="13" height="2" rx="1" fill="rgba(255,255,255,0.3)"/>
  <rect x="26" y="29" width="10" height="2" rx="1" fill="rgba(255,255,255,0.3)"/>
  <rect x="26" y="33" width="13" height="2" rx="1" fill="rgba(255,255,255,0.3)"/>
  <rect x="26" y="37" width="11" height="2" rx="1" fill="rgba(255,255,255,0.3)"/>
  <!-- Column divider -->
  <line x1="24" y1="19" x2="24" y2="41" stroke="rgba(0,0,0,0.1)" stroke-width="1"/>
  <!-- Highlight -->
  <rect x="5" y="6" width="22" height="10" rx="2.5" fill="rgba(255,255,255,0.18)"/>
</svg>
