<svg xmlns="http://www.w3.org/2000/svg" viewBox="0 0 48 48">
  <defs>
    <linearGradient id="shieldGrad" x1="0%" y1="0%" x2="100%" y2="100%">
      <stop offset="0%" stop-color="#fb923c"/>
      <stop offset="100%" stop-color="#c2410c"/>
    </linearGradient>
  </defs>
  <!-- Shadow -->
  <path d="M24 5L6 12v14c0 10 8 18 18 20 10-2 18-10 18-20V12z" fill="rgba(0,0,0,0.35)" transform="translate(1.5,1.5)"/>
  <!-- Main shield -->
  <path d="M24 5L6 12v14c0 10 8 18 18 20 10-2 18-10 18-20V12z" fill="url(#shieldGrad)"/>
  <!-- Inner shield outline -->
  <path d="M24 11l-12 5v10c0 6.5 5 12 12 13.5 7-1.5 12-7 12-13.5V16z" fill="rgba(255,255,255,0.12)"/>
  <!-- Checkmark inside -->
  <polyline points="17,25 22,30 31,19" fill="none" stroke="rgba(255,255,255,0.5)" stroke-width="2.5" stroke-linecap="round" stroke-linejoin="round"/>
  <!-- Highlight -->
  <ellipse cx="19" cy="13" rx="7" ry="4" fill="rgba(255,255,255,0.18)"/>
</svg>
